<mxfile host="app.diagrams.net" modified="2021-07-02T07:04:15.520Z" agent="5.0 (Windows NT 6.1; Win64; x64) AppleWebKit/537.36 (KHTML, like Gecko) Chrome/91.0.4472.124 Safari/537.36" etag="Rf0zpAMpIBhb4CNWvpSE" version="14.8.3" type="github">
  <diagram id="svJdvNLcBo15ErMTdaBZ" name="Page-1">
    <mxGraphModel dx="1185" dy="635" grid="1" gridSize="10" guides="1" tooltips="1" connect="1" arrows="1" fold="1" page="1" pageScale="1" pageWidth="827" pageHeight="1169" math="0" shadow="0">
      <root>
        <mxCell id="0" />
        <mxCell id="1" parent="0" />
        <mxCell id="Jw6nkUkV9LGjrNBP8vVU-48" value="" style="edgeStyle=orthogonalEdgeStyle;rounded=0;orthogonalLoop=1;jettySize=auto;html=1;" edge="1" parent="1" source="Jw6nkUkV9LGjrNBP8vVU-1">
          <mxGeometry relative="1" as="geometry">
            <mxPoint x="440" y="265" as="targetPoint" />
          </mxGeometry>
        </mxCell>
        <mxCell id="Jw6nkUkV9LGjrNBP8vVU-1" value="页5" style="swimlane;fillColor=#fff2cc;strokeColor=#d6b656;" vertex="1" parent="1">
          <mxGeometry x="70" y="200" width="330" height="130" as="geometry">
            <mxRectangle x="70" y="200" width="50" height="23" as="alternateBounds" />
          </mxGeometry>
        </mxCell>
        <mxCell id="Jw6nkUkV9LGjrNBP8vVU-4" value="0" style="rounded=1;whiteSpace=wrap;html=1;" vertex="1" parent="Jw6nkUkV9LGjrNBP8vVU-1">
          <mxGeometry x="70" y="40" width="40" height="20" as="geometry" />
        </mxCell>
        <mxCell id="Jw6nkUkV9LGjrNBP8vVU-6" value="4" style="rounded=1;whiteSpace=wrap;html=1;" vertex="1" parent="Jw6nkUkV9LGjrNBP8vVU-1">
          <mxGeometry x="70" y="80" width="40" height="20" as="geometry" />
        </mxCell>
        <mxCell id="Jw6nkUkV9LGjrNBP8vVU-7" value="u" style="rounded=1;whiteSpace=wrap;html=1;" vertex="1" parent="Jw6nkUkV9LGjrNBP8vVU-1">
          <mxGeometry x="70" y="100" width="40" height="20" as="geometry" />
        </mxCell>
        <mxCell id="Jw6nkUkV9LGjrNBP8vVU-23" value="" style="edgeStyle=orthogonalEdgeStyle;rounded=0;orthogonalLoop=1;jettySize=auto;html=1;" edge="1" parent="Jw6nkUkV9LGjrNBP8vVU-1" source="Jw6nkUkV9LGjrNBP8vVU-12" target="Jw6nkUkV9LGjrNBP8vVU-16">
          <mxGeometry relative="1" as="geometry" />
        </mxCell>
        <mxCell id="Jw6nkUkV9LGjrNBP8vVU-12" value="0" style="rounded=1;whiteSpace=wrap;html=1;" vertex="1" parent="Jw6nkUkV9LGjrNBP8vVU-1">
          <mxGeometry x="210" y="40" width="40" height="20" as="geometry" />
        </mxCell>
        <mxCell id="Jw6nkUkV9LGjrNBP8vVU-13" value="4" style="rounded=1;whiteSpace=wrap;html=1;" vertex="1" parent="Jw6nkUkV9LGjrNBP8vVU-1">
          <mxGeometry x="210" y="80" width="40" height="20" as="geometry" />
        </mxCell>
        <mxCell id="Jw6nkUkV9LGjrNBP8vVU-14" value="a" style="rounded=1;whiteSpace=wrap;html=1;" vertex="1" parent="Jw6nkUkV9LGjrNBP8vVU-1">
          <mxGeometry x="210" y="100" width="40" height="20" as="geometry" />
        </mxCell>
        <mxCell id="Jw6nkUkV9LGjrNBP8vVU-15" value="4" style="rounded=1;whiteSpace=wrap;html=1;" vertex="1" parent="Jw6nkUkV9LGjrNBP8vVU-1">
          <mxGeometry x="210" y="60" width="40" height="20" as="geometry" />
        </mxCell>
        <mxCell id="Jw6nkUkV9LGjrNBP8vVU-16" value="3" style="rounded=1;whiteSpace=wrap;html=1;" vertex="1" parent="Jw6nkUkV9LGjrNBP8vVU-1">
          <mxGeometry x="280" y="40" width="40" height="20" as="geometry" />
        </mxCell>
        <mxCell id="Jw6nkUkV9LGjrNBP8vVU-3" value="2" style="rounded=1;whiteSpace=wrap;html=1;" vertex="1" parent="Jw6nkUkV9LGjrNBP8vVU-1">
          <mxGeometry y="40" width="40" height="20" as="geometry" />
        </mxCell>
        <mxCell id="Jw6nkUkV9LGjrNBP8vVU-18" value="" style="edgeStyle=orthogonalEdgeStyle;rounded=0;orthogonalLoop=1;jettySize=auto;html=1;entryX=0;entryY=0.5;entryDx=0;entryDy=0;" edge="1" parent="Jw6nkUkV9LGjrNBP8vVU-1" source="Jw6nkUkV9LGjrNBP8vVU-3" target="Jw6nkUkV9LGjrNBP8vVU-4">
          <mxGeometry relative="1" as="geometry">
            <mxPoint x="60" y="50" as="targetPoint" />
          </mxGeometry>
        </mxCell>
        <mxCell id="Jw6nkUkV9LGjrNBP8vVU-24" value="最小值" style="rounded=1;whiteSpace=wrap;html=1;" vertex="1" parent="Jw6nkUkV9LGjrNBP8vVU-1">
          <mxGeometry y="60" width="40" height="20" as="geometry" />
        </mxCell>
        <mxCell id="Jw6nkUkV9LGjrNBP8vVU-25" value="最大值" style="rounded=1;whiteSpace=wrap;html=1;" vertex="1" parent="Jw6nkUkV9LGjrNBP8vVU-1">
          <mxGeometry x="280" y="60" width="40" height="20" as="geometry" />
        </mxCell>
        <mxCell id="Jw6nkUkV9LGjrNBP8vVU-2" value="假设每个页只能存放3条数据" style="text;html=1;strokeColor=none;fillColor=none;align=center;verticalAlign=middle;whiteSpace=wrap;rounded=0;" vertex="1" parent="1">
          <mxGeometry x="60" y="110" width="290" height="20" as="geometry" />
        </mxCell>
        <mxCell id="Jw6nkUkV9LGjrNBP8vVU-5" value="1" style="rounded=1;whiteSpace=wrap;html=1;" vertex="1" parent="1">
          <mxGeometry x="140" y="260" width="40" height="20" as="geometry" />
        </mxCell>
        <mxCell id="Jw6nkUkV9LGjrNBP8vVU-22" value="" style="edgeStyle=orthogonalEdgeStyle;rounded=0;orthogonalLoop=1;jettySize=auto;html=1;entryX=0;entryY=0.5;entryDx=0;entryDy=0;" edge="1" parent="1" source="Jw6nkUkV9LGjrNBP8vVU-8" target="Jw6nkUkV9LGjrNBP8vVU-12">
          <mxGeometry relative="1" as="geometry" />
        </mxCell>
        <mxCell id="Jw6nkUkV9LGjrNBP8vVU-8" value="0" style="rounded=1;whiteSpace=wrap;html=1;" vertex="1" parent="1">
          <mxGeometry x="210" y="240" width="40" height="20" as="geometry" />
        </mxCell>
        <mxCell id="Jw6nkUkV9LGjrNBP8vVU-9" value="9" style="rounded=1;whiteSpace=wrap;html=1;" vertex="1" parent="1">
          <mxGeometry x="210" y="280" width="40" height="20" as="geometry" />
        </mxCell>
        <mxCell id="Jw6nkUkV9LGjrNBP8vVU-10" value="d" style="rounded=1;whiteSpace=wrap;html=1;" vertex="1" parent="1">
          <mxGeometry x="210" y="300" width="40" height="20" as="geometry" />
        </mxCell>
        <mxCell id="Jw6nkUkV9LGjrNBP8vVU-11" value="3" style="rounded=1;whiteSpace=wrap;html=1;" vertex="1" parent="1">
          <mxGeometry x="210" y="260" width="40" height="20" as="geometry" />
        </mxCell>
        <mxCell id="Jw6nkUkV9LGjrNBP8vVU-21" value="" style="edgeStyle=orthogonalEdgeStyle;rounded=0;orthogonalLoop=1;jettySize=auto;html=1;" edge="1" parent="1" source="Jw6nkUkV9LGjrNBP8vVU-4">
          <mxGeometry relative="1" as="geometry">
            <mxPoint x="210" y="250" as="targetPoint" />
            <Array as="points">
              <mxPoint x="210" y="250" />
            </Array>
          </mxGeometry>
        </mxCell>
        <mxCell id="Jw6nkUkV9LGjrNBP8vVU-49" value="" style="edgeStyle=orthogonalEdgeStyle;rounded=0;orthogonalLoop=1;jettySize=auto;html=1;" edge="1" parent="1">
          <mxGeometry relative="1" as="geometry">
            <mxPoint x="440" y="275" as="sourcePoint" />
            <mxPoint x="400" y="275" as="targetPoint" />
          </mxGeometry>
        </mxCell>
        <mxCell id="Jw6nkUkV9LGjrNBP8vVU-26" value="页1" style="swimlane;fillColor=#fff2cc;strokeColor=#d6b656;" vertex="1" parent="1">
          <mxGeometry x="440" y="200" width="330" height="130" as="geometry">
            <mxRectangle x="70" y="200" width="50" height="23" as="alternateBounds" />
          </mxGeometry>
        </mxCell>
        <mxCell id="Jw6nkUkV9LGjrNBP8vVU-27" value="0" style="rounded=1;whiteSpace=wrap;html=1;" vertex="1" parent="Jw6nkUkV9LGjrNBP8vVU-26">
          <mxGeometry x="70" y="40" width="40" height="20" as="geometry" />
        </mxCell>
        <mxCell id="Jw6nkUkV9LGjrNBP8vVU-28" value="3" style="rounded=1;whiteSpace=wrap;html=1;" vertex="1" parent="Jw6nkUkV9LGjrNBP8vVU-26">
          <mxGeometry x="70" y="80" width="40" height="20" as="geometry" />
        </mxCell>
        <mxCell id="Jw6nkUkV9LGjrNBP8vVU-29" value="y" style="rounded=1;whiteSpace=wrap;html=1;" vertex="1" parent="Jw6nkUkV9LGjrNBP8vVU-26">
          <mxGeometry x="70" y="100" width="40" height="20" as="geometry" />
        </mxCell>
        <mxCell id="Jw6nkUkV9LGjrNBP8vVU-30" value="" style="edgeStyle=orthogonalEdgeStyle;rounded=0;orthogonalLoop=1;jettySize=auto;html=1;" edge="1" parent="Jw6nkUkV9LGjrNBP8vVU-26" source="Jw6nkUkV9LGjrNBP8vVU-31" target="Jw6nkUkV9LGjrNBP8vVU-35">
          <mxGeometry relative="1" as="geometry" />
        </mxCell>
        <mxCell id="Jw6nkUkV9LGjrNBP8vVU-31" value="0" style="rounded=1;whiteSpace=wrap;html=1;" vertex="1" parent="Jw6nkUkV9LGjrNBP8vVU-26">
          <mxGeometry x="210" y="40" width="40" height="20" as="geometry" />
        </mxCell>
        <mxCell id="Jw6nkUkV9LGjrNBP8vVU-32" value="4" style="rounded=1;whiteSpace=wrap;html=1;" vertex="1" parent="Jw6nkUkV9LGjrNBP8vVU-26">
          <mxGeometry x="210" y="80" width="40" height="20" as="geometry" />
        </mxCell>
        <mxCell id="Jw6nkUkV9LGjrNBP8vVU-33" value="o" style="rounded=1;whiteSpace=wrap;html=1;" vertex="1" parent="Jw6nkUkV9LGjrNBP8vVU-26">
          <mxGeometry x="210" y="100" width="40" height="20" as="geometry" />
        </mxCell>
        <mxCell id="Jw6nkUkV9LGjrNBP8vVU-34" value="10" style="rounded=1;whiteSpace=wrap;html=1;" vertex="1" parent="Jw6nkUkV9LGjrNBP8vVU-26">
          <mxGeometry x="210" y="60" width="40" height="20" as="geometry" />
        </mxCell>
        <mxCell id="Jw6nkUkV9LGjrNBP8vVU-35" value="3" style="rounded=1;whiteSpace=wrap;html=1;" vertex="1" parent="Jw6nkUkV9LGjrNBP8vVU-26">
          <mxGeometry x="280" y="40" width="40" height="20" as="geometry" />
        </mxCell>
        <mxCell id="Jw6nkUkV9LGjrNBP8vVU-36" value="2" style="rounded=1;whiteSpace=wrap;html=1;" vertex="1" parent="Jw6nkUkV9LGjrNBP8vVU-26">
          <mxGeometry x="10" y="40" width="40" height="20" as="geometry" />
        </mxCell>
        <mxCell id="Jw6nkUkV9LGjrNBP8vVU-37" value="" style="edgeStyle=orthogonalEdgeStyle;rounded=0;orthogonalLoop=1;jettySize=auto;html=1;entryX=0;entryY=0.5;entryDx=0;entryDy=0;" edge="1" parent="Jw6nkUkV9LGjrNBP8vVU-26" source="Jw6nkUkV9LGjrNBP8vVU-36" target="Jw6nkUkV9LGjrNBP8vVU-27">
          <mxGeometry relative="1" as="geometry">
            <mxPoint x="60" y="50" as="targetPoint" />
          </mxGeometry>
        </mxCell>
        <mxCell id="Jw6nkUkV9LGjrNBP8vVU-38" value="最小值" style="rounded=1;whiteSpace=wrap;html=1;" vertex="1" parent="Jw6nkUkV9LGjrNBP8vVU-26">
          <mxGeometry x="10" y="60" width="40" height="20" as="geometry" />
        </mxCell>
        <mxCell id="Jw6nkUkV9LGjrNBP8vVU-39" value="最大值" style="rounded=1;whiteSpace=wrap;html=1;" vertex="1" parent="Jw6nkUkV9LGjrNBP8vVU-26">
          <mxGeometry x="280" y="60" width="40" height="20" as="geometry" />
        </mxCell>
        <mxCell id="Jw6nkUkV9LGjrNBP8vVU-40" value="5" style="rounded=1;whiteSpace=wrap;html=1;" vertex="1" parent="1">
          <mxGeometry x="510" y="260" width="40" height="20" as="geometry" />
        </mxCell>
        <mxCell id="Jw6nkUkV9LGjrNBP8vVU-41" value="" style="edgeStyle=orthogonalEdgeStyle;rounded=0;orthogonalLoop=1;jettySize=auto;html=1;entryX=0;entryY=0.5;entryDx=0;entryDy=0;" edge="1" parent="1" source="Jw6nkUkV9LGjrNBP8vVU-42" target="Jw6nkUkV9LGjrNBP8vVU-31">
          <mxGeometry relative="1" as="geometry" />
        </mxCell>
        <mxCell id="Jw6nkUkV9LGjrNBP8vVU-42" value="0" style="rounded=1;whiteSpace=wrap;html=1;" vertex="1" parent="1">
          <mxGeometry x="580" y="240" width="40" height="20" as="geometry" />
        </mxCell>
        <mxCell id="Jw6nkUkV9LGjrNBP8vVU-43" value="7" style="rounded=1;whiteSpace=wrap;html=1;" vertex="1" parent="1">
          <mxGeometry x="580" y="280" width="40" height="20" as="geometry" />
        </mxCell>
        <mxCell id="Jw6nkUkV9LGjrNBP8vVU-44" value="a" style="rounded=1;whiteSpace=wrap;html=1;" vertex="1" parent="1">
          <mxGeometry x="580" y="300" width="40" height="20" as="geometry" />
        </mxCell>
        <mxCell id="Jw6nkUkV9LGjrNBP8vVU-45" value="8" style="rounded=1;whiteSpace=wrap;html=1;" vertex="1" parent="1">
          <mxGeometry x="580" y="260" width="40" height="20" as="geometry" />
        </mxCell>
        <mxCell id="Jw6nkUkV9LGjrNBP8vVU-46" value="" style="edgeStyle=orthogonalEdgeStyle;rounded=0;orthogonalLoop=1;jettySize=auto;html=1;" edge="1" parent="1" source="Jw6nkUkV9LGjrNBP8vVU-27">
          <mxGeometry relative="1" as="geometry">
            <mxPoint x="580" y="250" as="targetPoint" />
            <Array as="points">
              <mxPoint x="580" y="250" />
            </Array>
          </mxGeometry>
        </mxCell>
      </root>
    </mxGraphModel>
  </diagram>
</mxfile>
